<?xml version="1.0" standalone="no"?>
<!DOCTYPE svg PUBLIC "-//W3C//DTD SVG 20010904//EN"
 "http://www.w3.org/TR/2001/REC-SVG-20010904/DTD/svg10.dtd">
<svg version="1.0" xmlns="http://www.w3.org/2000/svg"
 width="650.000000pt" height="650.000000pt" viewBox="0 0 650.000000 650.000000"
 preserveAspectRatio="xMidYMid meet">
<metadata>
Created by potrace 1.11, written by Peter Selinger 2001-2013
</metadata>
<g transform="translate(0.000000,650.000000) scale(0.100000,-0.100000)"
fill="#000000" stroke="none">
<path d="M3007 5814 c-1 -1 -33 -5 -70 -9 -37 -3 -76 -8 -86 -10 -10 -2 -36
-6 -57 -9 -89 -15 -344 -86 -409 -116 -11 -5 -56 -23 -100 -41 -355 -143 -797
-460 -978 -703 -49 -64 -137 -201 -137 -212 0 -3 -14 -35 -31 -72 -66 -140
-150 -448 -173 -632 -7 -54 -25 -217 -31 -280 -19 -194 -26 -719 -12 -910 35
-477 162 -880 377 -1200 289 -430 808 -759 1380 -874 335 -68 741 -64 1085 10
39 8 81 17 95 20 166 33 463 156 625 259 131 83 194 137 379 321 95 95 134
127 183 149 67 31 79 47 89 125 4 27 12 50 18 51 6 0 2 4 -9 9 -14 6 -1182 7
-1214 1 -3 -1 3 -7 13 -14 17 -12 14 -15 -32 -35 -28 -12 -79 -29 -114 -38
-121 -30 -213 -53 -216 -53 -1 0 -15 -2 -30 -5 -112 -23 -294 -48 -357 -50
-155 -3 -442 101 -748 272 -221 123 -303 200 -393 369 -42 80 -90 231 -109
343 -3 19 -8 42 -10 50 -2 8 -7 40 -10 70 -4 30 -9 67 -10 82 -2 15 -7 71 -10
125 l-6 98 1811 0 c1804 0 1810 0 1811 20 2 46 12 82 49 176 51 127 53 183 10
313 -17 50 -35 100 -40 111 -9 17 -16 49 -19 78 -1 4 -826 7 -1835 7 l-1835 0
5 23 c6 33 18 91 19 97 1 3 5 19 9 35 31 123 106 324 169 454 129 264 230 367
552 568 113 71 309 151 424 174 60 11 328 8 411 -6 216 -36 338 -74 423 -133
l52 -36 613 -1 c336 0 612 0 612 2 0 9 -132 187 -183 247 -227 268 -449 436
-727 549 -138 57 -454 150 -580 172 -60 10 -84 15 -110 20 -33 7 -140 22 -215
31 -55 6 -312 13 -318 8z"/>
</g>
</svg>
